<svg xmlns="http://www.w3.org/2000/svg" viewBox="0 0 213.11 253.56"><defs><style>.cls-1{fill:none;}.cls-2{fill:#f5d537;}</style></defs><g id="Camada_2" data-name="Camada 2"><g id="Camada_1-2" data-name="Camada 1"><rect class="cls-1" width="213.11" height="253.56"/><path class="cls-2" d="M128.27,120l10.85-18.8h-9.38l9.38-16.24H117.4l-10.85-18.8L95.7,84.93H74l9.38,16.24H74L84.85,120,66.11,152.44l20.22,35h40.45l20.23-35Zm11.34,29.9H111l14.31-24.78Zm-9.37-43.58-6.41,11.11H111l6.41-11.11ZM117.4,90.06h12.84l-6.41,11.11H117.4l-3.2-5.56ZM106.55,76.39,113,87.49l-1.62,2.79-.11.2-4.7-8.11-4.68,8.11-.12-.2-1.61-2.79Zm0,16.23L113,103.74l-6.41,11.11-6.41-11.11ZM82.87,90.06H95.7l3.21,5.55-3.21,5.56H89.28Zm0,16.23H95.7l6.41,11.11H89.28ZM72,152.44l17.26-29.92h31.58l-33,57.26Zm20.23,29.9,14.3-24.78,14.31,24.78Zm33.05-2.56L111,155h28.62Z"/></g></g></svg>